<svg xmlns="http://www.w3.org/2000/svg" width="1000" height="1000" viewBox="0 0 40 40" shape-rendering="crispEdges"><rect width="40" height="40" fill="#e3e5e4"/><rect x="0" y="0" width="40" height="1" fill="#48494b"/><rect x="0" y="1" width="40" height="1" fill="#48494b"/><rect x="0" y="2" width="40" height="1" fill="#48494b"/><rect x="0" y="3" width="40" height="1" fill="#48494b"/><rect x="0" y="4" width="40" height="1" fill="#48494b"/><rect x="0" y="5" width="40" height="1" fill="#48494b"/><rect x="0" y="6" width="15" height="1" fill="#48494b"/><rect x="17" y="6" width="4" height="1" fill="#48494b"/><rect x="22" y="6" width="18" height="1" fill="#48494b"/><rect x="0" y="7" width="13" height="1" fill="#48494b"/><rect x="16" y="7" width="8" height="1" fill="#48494b"/><rect x="25" y="7" width="15" height="1" fill="#48494b"/><rect x="0" y="8" width="11" height="1" fill="#48494b"/><rect x="13" y="8" width="1" height="1" fill="#48494b"/><rect x="16" y="8" width="1" height="1" fill="#48494b"/><rect x="23" y="8" width="1" height="1" fill="#48494b"/><rect x="27" y="8" width="13" height="1" fill="#48494b"/><rect x="0" y="9" width="11" height="1" fill="#48494b"/><rect x="12" y="9" width="2" height="1" fill="#48494b"/><rect x="15" y="9" width="1" height="1" fill="#48494b"/><rect x="24" y="9" width="1" height="1" fill="#48494b"/><rect x="27" y="9" width="13" height="1" fill="#48494b"/><rect x="0" y="10" width="13" height="1" fill="#48494b"/><rect x="15" y="10" width="1" height="1" fill="#48494b"/><rect x="24" y="10" width="1" height="1" fill="#48494b"/><rect x="26" y="10" width="14" height="1" fill="#48494b"/><rect x="0" y="11" width="12" height="1" fill="#48494b"/><rect x="13" y="11" width="3" height="1" fill="#48494b"/><rect x="24" y="11" width="2" height="1" fill="#48494b"/><rect x="27" y="11" width="13" height="1" fill="#48494b"/><rect x="0" y="12" width="12" height="1" fill="#48494b"/><rect x="13" y="12" width="2" height="1" fill="#48494b"/><rect x="25" y="12" width="1" height="1" fill="#48494b"/><rect x="27" y="12" width="13" height="1" fill="#48494b"/><rect x="0" y="13" width="11" height="1" fill="#48494b"/><rect x="15" y="13" width="4" height="1" fill="#48494b"/><rect x="21" y="13" width="6" height="1" fill="#48494b"/><rect x="28" y="13" width="12" height="1" fill="#48494b"/><rect x="0" y="14" width="11" height="1" fill="#48494b"/><rect x="12" y="14" width="7" height="1" fill="#48494b"/><rect x="21" y="14" width="19" height="1" fill="#48494b"/><rect x="0" y="15" width="11" height="1" fill="#48494b"/><rect x="12" y="15" width="3" height="1" fill="#48494b"/><rect x="17" y="15" width="2" height="1" fill="#48494b"/><rect x="21" y="15" width="1" height="1" fill="#48494b"/><rect x="23" y="15" width="4" height="1" fill="#48494b"/><rect x="28" y="15" width="12" height="1" fill="#48494b"/><rect x="0" y="16" width="14" height="1" fill="#48494b"/><rect x="15" y="16" width="3" height="1" fill="#48494b"/><rect x="22" y="16" width="1" height="1" fill="#48494b"/><rect x="24" y="16" width="1" height="1" fill="#48494b"/><rect x="26" y="16" width="14" height="1" fill="#48494b"/><rect x="0" y="17" width="12" height="1" fill="#48494b"/><rect x="13" y="17" width="1" height="1" fill="#48494b"/><rect x="15" y="17" width="1" height="1" fill="#48494b"/><rect x="19" y="17" width="2" height="1" fill="#48494b"/><rect x="26" y="17" width="14" height="1" fill="#48494b"/><rect x="0" y="18" width="12" height="1" fill="#48494b"/><rect x="13" y="18" width="1" height="1" fill="#48494b"/><rect x="19" y="18" width="2" height="1" fill="#48494b"/><rect x="25" y="18" width="1" height="1" fill="#48494b"/><rect x="27" y="18" width="13" height="1" fill="#48494b"/><rect x="0" y="19" width="15" height="1" fill="#48494b"/><rect x="19" y="19" width="1" height="1" fill="#48494b"/><rect x="24" y="19" width="16" height="1" fill="#48494b"/><rect x="0" y="20" width="15" height="1" fill="#48494b"/><rect x="24" y="20" width="2" height="1" fill="#48494b"/><rect x="27" y="20" width="13" height="1" fill="#48494b"/><rect x="0" y="21" width="13" height="1" fill="#48494b"/><rect x="14" y="21" width="2" height="1" fill="#48494b"/><rect x="17" y="21" width="2" height="1" fill="#48494b"/><rect x="20" y="21" width="1" height="1" fill="#48494b"/><rect x="22" y="21" width="18" height="1" fill="#48494b"/><rect x="0" y="22" width="17" height="1" fill="#48494b"/><rect x="19" y="22" width="21" height="1" fill="#48494b"/><rect x="0" y="23" width="17" height="1" fill="#48494b"/><rect x="20" y="23" width="20" height="1" fill="#48494b"/><rect x="0" y="24" width="40" height="1" fill="#48494b"/><rect x="0" y="25" width="29" height="1" fill="#48494b"/><rect x="30" y="25" width="10" height="1" fill="#48494b"/><rect x="0" y="26" width="9" height="1" fill="#48494b"/><rect x="11" y="26" width="5" height="1" fill="#48494b"/><rect x="17" y="26" width="1" height="1" fill="#48494b"/><rect x="19" y="26" width="10" height="1" fill="#48494b"/><rect x="31" y="26" width="9" height="1" fill="#48494b"/><rect x="0" y="27" width="9" height="1" fill="#48494b"/><rect x="11" y="27" width="5" height="1" fill="#48494b"/><rect x="17" y="27" width="2" height="1" fill="#48494b"/><rect x="20" y="27" width="9" height="1" fill="#48494b"/><rect x="30" y="27" width="1" height="1" fill="#48494b"/><rect x="34" y="27" width="6" height="1" fill="#48494b"/><rect x="0" y="28" width="6" height="1" fill="#48494b"/><rect x="9" y="28" width="22" height="1" fill="#48494b"/><rect x="34" y="28" width="6" height="1" fill="#48494b"/><rect x="0" y="29" width="5" height="1" fill="#48494b"/><rect x="8" y="29" width="1" height="1" fill="#48494b"/><rect x="10" y="29" width="1" height="1" fill="#48494b"/><rect x="12" y="29" width="5" height="1" fill="#48494b"/><rect x="18" y="29" width="7" height="1" fill="#48494b"/><rect x="27" y="29" width="3" height="1" fill="#48494b"/><rect x="31" y="29" width="3" height="1" fill="#48494b"/><rect x="36" y="29" width="4" height="1" fill="#48494b"/><rect x="0" y="30" width="4" height="1" fill="#48494b"/><rect x="6" y="30" width="1" height="1" fill="#48494b"/><rect x="9" y="30" width="3" height="1" fill="#48494b"/><rect x="13" y="30" width="8" height="1" fill="#48494b"/><rect x="22" y="30" width="3" height="1" fill="#48494b"/><rect x="27" y="30" width="4" height="1" fill="#48494b"/><rect x="32" y="30" width="2" height="1" fill="#48494b"/><rect x="36" y="30" width="4" height="1" fill="#48494b"/><rect x="0" y="31" width="6" height="1" fill="#48494b"/><rect x="7" y="31" width="5" height="1" fill="#48494b"/><rect x="13" y="31" width="1" height="1" fill="#48494b"/><rect x="15" y="31" width="9" height="1" fill="#48494b"/><rect x="25" y="31" width="1" height="1" fill="#48494b"/><rect x="27" y="31" width="6" height="1" fill="#48494b"/><rect x="35" y="31" width="5" height="1" fill="#48494b"/><rect x="0" y="32" width="5" height="1" fill="#48494b"/><rect x="6" y="32" width="6" height="1" fill="#48494b"/><rect x="17" y="32" width="6" height="1" fill="#48494b"/><rect x="25" y="32" width="1" height="1" fill="#48494b"/><rect x="29" y="32" width="4" height="1" fill="#48494b"/><rect x="35" y="32" width="5" height="1" fill="#48494b"/><rect x="0" y="33" width="5" height="1" fill="#48494b"/><rect x="7" y="33" width="4" height="1" fill="#48494b"/><rect x="29" y="33" width="2" height="1" fill="#48494b"/><rect x="32" y="33" width="2" height="1" fill="#48494b"/><rect x="35" y="33" width="5" height="1" fill="#48494b"/><rect x="0" y="34" width="5" height="1" fill="#48494b"/><rect x="6" y="34" width="2" height="1" fill="#48494b"/><rect x="9" y="34" width="2" height="1" fill="#48494b"/><rect x="13" y="34" width="3" height="1" fill="#48494b"/><rect x="17" y="34" width="1" height="1" fill="#48494b"/><rect x="20" y="34" width="1" height="1" fill="#48494b"/><rect x="22" y="34" width="2" height="1" fill="#48494b"/><rect x="26" y="34" width="2" height="1" fill="#48494b"/><rect x="29" y="34" width="2" height="1" fill="#48494b"/><rect x="32" y="34" width="2" height="1" fill="#48494b"/><rect x="35" y="34" width="5" height="1" fill="#48494b"/><rect x="0" y="35" width="5" height="1" fill="#48494b"/><rect x="6" y="35" width="6" height="1" fill="#48494b"/><rect x="15" y="35" width="3" height="1" fill="#48494b"/><rect x="22" y="35" width="2" height="1" fill="#48494b"/><rect x="29" y="35" width="5" height="1" fill="#48494b"/><rect x="35" y="35" width="5" height="1" fill="#48494b"/><rect x="0" y="36" width="5" height="1" fill="#48494b"/><rect x="6" y="36" width="5" height="1" fill="#48494b"/><rect x="12" y="36" width="2" height="1" fill="#48494b"/><rect x="17" y="36" width="4" height="1" fill="#48494b"/><rect x="22" y="36" width="2" height="1" fill="#48494b"/><rect x="25" y="36" width="1" height="1" fill="#48494b"/><rect x="29" y="36" width="5" height="1" fill="#48494b"/><rect x="35" y="36" width="5" height="1" fill="#48494b"/><rect x="0" y="37" width="5" height="1" fill="#48494b"/><rect x="6" y="37" width="5" height="1" fill="#48494b"/><rect x="14" y="37" width="2" height="1" fill="#48494b"/><rect x="17" y="37" width="2" height="1" fill="#48494b"/><rect x="22" y="37" width="2" height="1" fill="#48494b"/><rect x="25" y="37" width="9" height="1" fill="#48494b"/><rect x="35" y="37" width="5" height="1" fill="#48494b"/><rect x="0" y="38" width="5" height="1" fill="#48494b"/><rect x="6" y="38" width="10" height="1" fill="#48494b"/><rect x="22" y="38" width="2" height="1" fill="#48494b"/><rect x="25" y="38" width="15" height="1" fill="#48494b"/><rect x="0" y="39" width="16" height="1" fill="#48494b"/><rect x="19" y="39" width="1" height="1" fill="#48494b"/><rect x="21" y="39" width="19" height="1" fill="#48494b"/></svg>