<svg xmlns="http://www.w3.org/2000/svg" width="1000" height="1000" viewBox="0 0 40 40" shape-rendering="crispEdges"><rect width="40" height="40" fill="#e3e5e4"/><rect x="17" y="1" width="7" height="1" fill="#48494b"/><rect x="15" y="2" width="11" height="1" fill="#48494b"/><rect x="13" y="3" width="6" height="1" fill="#48494b"/><rect x="20" y="3" width="2" height="1" fill="#48494b"/><rect x="23" y="3" width="5" height="1" fill="#48494b"/><rect x="12" y="4" width="16" height="1" fill="#48494b"/><rect x="11" y="5" width="19" height="1" fill="#48494b"/><rect x="8" y="6" width="24" height="1" fill="#48494b"/><rect x="8" y="7" width="7" height="1" fill="#48494b"/><rect x="26" y="7" width="7" height="1" fill="#48494b"/><rect x="7" y="8" width="5" height="1" fill="#48494b"/><rect x="18" y="8" width="5" height="1" fill="#48494b"/><rect x="29" y="8" width="5" height="1" fill="#48494b"/><rect x="7" y="9" width="5" height="1" fill="#48494b"/><rect x="13" y="9" width="2" height="1" fill="#48494b"/><rect x="26" y="9" width="2" height="1" fill="#48494b"/><rect x="29" y="9" width="5" height="1" fill="#48494b"/><rect x="7" y="10" width="5" height="1" fill="#48494b"/><rect x="29" y="10" width="5" height="1" fill="#48494b"/><rect x="7" y="11" width="27" height="1" fill="#48494b"/><rect x="6" y="12" width="10" height="1" fill="#48494b"/><rect x="25" y="12" width="10" height="1" fill="#48494b"/><rect x="6" y="13" width="8" height="1" fill="#48494b"/><rect x="27" y="13" width="8" height="1" fill="#48494b"/><rect x="6" y="14" width="7" height="1" fill="#48494b"/><rect x="18" y="14" width="1" height="1" fill="#48494b"/><rect x="20" y="14" width="1" height="1" fill="#48494b"/><rect x="22" y="14" width="1" height="1" fill="#48494b"/><rect x="28" y="14" width="7" height="1" fill="#48494b"/><rect x="6" y="15" width="6" height="1" fill="#48494b"/><rect x="17" y="15" width="2" height="1" fill="#48494b"/><rect x="20" y="15" width="1" height="1" fill="#48494b"/><rect x="22" y="15" width="2" height="1" fill="#48494b"/><rect x="29" y="15" width="6" height="1" fill="#48494b"/><rect x="6" y="16" width="6" height="1" fill="#48494b"/><rect x="29" y="16" width="6" height="1" fill="#48494b"/><rect x="6" y="17" width="6" height="1" fill="#48494b"/><rect x="15" y="17" width="4" height="1" fill="#48494b"/><rect x="20" y="17" width="1" height="1" fill="#48494b"/><rect x="22" y="17" width="4" height="1" fill="#48494b"/><rect x="29" y="17" width="6" height="1" fill="#48494b"/><rect x="4" y="18" width="8" height="1" fill="#48494b"/><rect x="15" y="18" width="1" height="1" fill="#48494b"/><rect x="18" y="18" width="1" height="1" fill="#48494b"/><rect x="22" y="18" width="1" height="1" fill="#48494b"/><rect x="25" y="18" width="1" height="1" fill="#48494b"/><rect x="29" y="18" width="8" height="1" fill="#48494b"/><rect x="2" y="19" width="10" height="1" fill="#48494b"/><rect x="15" y="19" width="4" height="1" fill="#48494b"/><rect x="22" y="19" width="4" height="1" fill="#48494b"/><rect x="29" y="19" width="9" height="1" fill="#48494b"/><rect x="2" y="20" width="11" height="1" fill="#48494b"/><rect x="28" y="20" width="10" height="1" fill="#48494b"/><rect x="2" y="21" width="11" height="1" fill="#48494b"/><rect x="28" y="21" width="10" height="1" fill="#48494b"/><rect x="2" y="22" width="11" height="1" fill="#48494b"/><rect x="28" y="22" width="10" height="1" fill="#48494b"/><rect x="2" y="23" width="12" height="1" fill="#48494b"/><rect x="27" y="23" width="11" height="1" fill="#48494b"/><rect x="3" y="24" width="6" height="1" fill="#48494b"/><rect x="11" y="24" width="3" height="1" fill="#48494b"/><rect x="18" y="24" width="5" height="1" fill="#48494b"/><rect x="27" y="24" width="3" height="1" fill="#48494b"/><rect x="31" y="24" width="7" height="1" fill="#48494b"/><rect x="3" y="25" width="6" height="1" fill="#48494b"/><rect x="11" y="25" width="5" height="1" fill="#48494b"/><rect x="26" y="25" width="3" height="1" fill="#48494b"/><rect x="31" y="25" width="7" height="1" fill="#48494b"/><rect x="3" y="26" width="5" height="1" fill="#48494b"/><rect x="12" y="26" width="4" height="1" fill="#48494b"/><rect x="25" y="26" width="4" height="1" fill="#48494b"/><rect x="31" y="26" width="6" height="1" fill="#48494b"/><rect x="3" y="27" width="6" height="1" fill="#48494b"/><rect x="12" y="27" width="7" height="1" fill="#48494b"/><rect x="22" y="27" width="6" height="1" fill="#48494b"/><rect x="31" y="27" width="6" height="1" fill="#48494b"/><rect x="4" y="28" width="5" height="1" fill="#48494b"/><rect x="14" y="28" width="13" height="1" fill="#48494b"/><rect x="31" y="28" width="6" height="1" fill="#48494b"/><rect x="4" y="29" width="5" height="1" fill="#48494b"/><rect x="15" y="29" width="11" height="1" fill="#48494b"/><rect x="31" y="29" width="6" height="1" fill="#48494b"/><rect x="13" y="30" width="15" height="1" fill="#48494b"/><rect x="9" y="31" width="6" height="1" fill="#48494b"/><rect x="16" y="31" width="2" height="1" fill="#48494b"/><rect x="19" y="31" width="5" height="1" fill="#48494b"/><rect x="26" y="31" width="6" height="1" fill="#48494b"/><rect x="8" y="32" width="4" height="1" fill="#48494b"/><rect x="13" y="32" width="2" height="1" fill="#48494b"/><rect x="19" y="32" width="3" height="1" fill="#48494b"/><rect x="26" y="32" width="2" height="1" fill="#48494b"/><rect x="29" y="32" width="4" height="1" fill="#48494b"/><rect x="7" y="33" width="5" height="1" fill="#48494b"/><rect x="13" y="33" width="2" height="1" fill="#48494b"/><rect x="19" y="33" width="1" height="1" fill="#48494b"/><rect x="26" y="33" width="2" height="1" fill="#48494b"/><rect x="29" y="33" width="5" height="1" fill="#48494b"/><rect x="7" y="34" width="5" height="1" fill="#48494b"/><rect x="13" y="34" width="3" height="1" fill="#48494b"/><rect x="21" y="34" width="1" height="1" fill="#48494b"/><rect x="25" y="34" width="3" height="1" fill="#48494b"/><rect x="29" y="34" width="5" height="1" fill="#48494b"/><rect x="7" y="35" width="5" height="1" fill="#48494b"/><rect x="13" y="35" width="3" height="1" fill="#48494b"/><rect x="25" y="35" width="3" height="1" fill="#48494b"/><rect x="29" y="35" width="5" height="1" fill="#48494b"/><rect x="7" y="36" width="5" height="1" fill="#48494b"/><rect x="13" y="36" width="3" height="1" fill="#48494b"/><rect x="25" y="36" width="3" height="1" fill="#48494b"/><rect x="29" y="36" width="5" height="1" fill="#48494b"/><rect x="7" y="37" width="5" height="1" fill="#48494b"/><rect x="13" y="37" width="3" height="1" fill="#48494b"/><rect x="18" y="37" width="1" height="1" fill="#48494b"/><rect x="23" y="37" width="1" height="1" fill="#48494b"/><rect x="25" y="37" width="3" height="1" fill="#48494b"/><rect x="29" y="37" width="5" height="1" fill="#48494b"/><rect x="7" y="38" width="10" height="1" fill="#48494b"/><rect x="24" y="38" width="10" height="1" fill="#48494b"/><rect x="7" y="39" width="12" height="1" fill="#48494b"/><rect x="20" y="39" width="2" height="1" fill="#48494b"/><rect x="23" y="39" width="11" height="1" fill="#48494b"/></svg>