<svg xmlns="http://www.w3.org/2000/svg" width="1000" height="1000" viewBox="0 0 40 40" shape-rendering="crispEdges"><rect width="40" height="40" fill="#e3e5e4"/><rect x="5" y="3" width="1" height="1" fill="#48494b"/><rect x="16" y="3" width="2" height="1" fill="#48494b"/><rect x="35" y="3" width="1" height="1" fill="#48494b"/><rect x="5" y="4" width="2" height="1" fill="#48494b"/><rect x="15" y="4" width="10" height="1" fill="#48494b"/><rect x="34" y="4" width="2" height="1" fill="#48494b"/><rect x="5" y="5" width="2" height="1" fill="#48494b"/><rect x="15" y="5" width="11" height="1" fill="#48494b"/><rect x="34" y="5" width="1" height="1" fill="#48494b"/><rect x="5" y="6" width="2" height="1" fill="#48494b"/><rect x="12" y="6" width="15" height="1" fill="#48494b"/><rect x="34" y="6" width="2" height="1" fill="#48494b"/><rect x="4" y="7" width="2" height="1" fill="#48494b"/><rect x="12" y="7" width="17" height="1" fill="#48494b"/><rect x="34" y="7" width="1" height="1" fill="#48494b"/><rect x="4" y="8" width="2" height="1" fill="#48494b"/><rect x="10" y="8" width="11" height="1" fill="#48494b"/><rect x="22" y="8" width="8" height="1" fill="#48494b"/><rect x="35" y="8" width="2" height="1" fill="#48494b"/><rect x="3" y="9" width="1" height="1" fill="#48494b"/><rect x="5" y="9" width="1" height="1" fill="#48494b"/><rect x="10" y="9" width="21" height="1" fill="#48494b"/><rect x="35" y="9" width="2" height="1" fill="#48494b"/><rect x="3" y="10" width="3" height="1" fill="#48494b"/><rect x="10" y="10" width="7" height="1" fill="#48494b"/><rect x="18" y="10" width="5" height="1" fill="#48494b"/><rect x="24" y="10" width="7" height="1" fill="#48494b"/><rect x="35" y="10" width="2" height="1" fill="#48494b"/><rect x="3" y="11" width="1" height="1" fill="#48494b"/><rect x="5" y="11" width="1" height="1" fill="#48494b"/><rect x="10" y="11" width="7" height="1" fill="#48494b"/><rect x="24" y="11" width="7" height="1" fill="#48494b"/><rect x="35" y="11" width="2" height="1" fill="#48494b"/><rect x="3" y="12" width="2" height="1" fill="#48494b"/><rect x="6" y="12" width="1" height="1" fill="#48494b"/><rect x="8" y="12" width="7" height="1" fill="#48494b"/><rect x="25" y="12" width="7" height="1" fill="#48494b"/><rect x="33" y="12" width="2" height="1" fill="#48494b"/><rect x="36" y="12" width="1" height="1" fill="#48494b"/><rect x="4" y="13" width="4" height="1" fill="#48494b"/><rect x="9" y="13" width="5" height="1" fill="#48494b"/><rect x="25" y="13" width="1" height="1" fill="#48494b"/><rect x="27" y="13" width="4" height="1" fill="#48494b"/><rect x="34" y="13" width="3" height="1" fill="#48494b"/><rect x="5" y="14" width="8" height="1" fill="#48494b"/><rect x="17" y="14" width="1" height="1" fill="#48494b"/><rect x="20" y="14" width="1" height="1" fill="#48494b"/><rect x="22" y="14" width="1" height="1" fill="#48494b"/><rect x="25" y="14" width="1" height="1" fill="#48494b"/><rect x="27" y="14" width="9" height="1" fill="#48494b"/><rect x="7" y="15" width="7" height="1" fill="#48494b"/><rect x="15" y="15" width="1" height="1" fill="#48494b"/><rect x="28" y="15" width="5" height="1" fill="#48494b"/><rect x="9" y="16" width="4" height="1" fill="#48494b"/><rect x="14" y="16" width="2" height="1" fill="#48494b"/><rect x="17" y="16" width="2" height="1" fill="#48494b"/><rect x="22" y="16" width="7" height="1" fill="#48494b"/><rect x="31" y="16" width="1" height="1" fill="#48494b"/><rect x="8" y="17" width="1" height="1" fill="#48494b"/><rect x="10" y="17" width="9" height="1" fill="#48494b"/><rect x="22" y="17" width="3" height="1" fill="#48494b"/><rect x="26" y="17" width="1" height="1" fill="#48494b"/><rect x="29" y="17" width="1" height="1" fill="#48494b"/><rect x="31" y="17" width="1" height="1" fill="#48494b"/><rect x="9" y="18" width="4" height="1" fill="#48494b"/><rect x="14" y="18" width="3" height="1" fill="#48494b"/><rect x="22" y="18" width="3" height="1" fill="#48494b"/><rect x="26" y="18" width="6" height="1" fill="#48494b"/><rect x="8" y="19" width="5" height="1" fill="#48494b"/><rect x="14" y="19" width="7" height="1" fill="#48494b"/><rect x="22" y="19" width="7" height="1" fill="#48494b"/><rect x="30" y="19" width="2" height="1" fill="#48494b"/><rect x="9" y="20" width="4" height="1" fill="#48494b"/><rect x="25" y="20" width="1" height="1" fill="#48494b"/><rect x="27" y="20" width="5" height="1" fill="#48494b"/><rect x="8" y="21" width="4" height="1" fill="#48494b"/><rect x="13" y="21" width="1" height="1" fill="#48494b"/><rect x="18" y="21" width="1" height="1" fill="#48494b"/><rect x="21" y="21" width="1" height="1" fill="#48494b"/><rect x="27" y="21" width="5" height="1" fill="#48494b"/><rect x="8" y="22" width="6" height="1" fill="#48494b"/><rect x="18" y="22" width="2" height="1" fill="#48494b"/><rect x="21" y="22" width="1" height="1" fill="#48494b"/><rect x="26" y="22" width="7" height="1" fill="#48494b"/><rect x="8" y="23" width="8" height="1" fill="#48494b"/><rect x="23" y="23" width="1" height="1" fill="#48494b"/><rect x="26" y="23" width="6" height="1" fill="#48494b"/><rect x="5" y="24" width="11" height="1" fill="#48494b"/><rect x="19" y="24" width="3" height="1" fill="#48494b"/><rect x="24" y="24" width="9" height="1" fill="#48494b"/><rect x="34" y="24" width="2" height="1" fill="#48494b"/><rect x="5" y="25" width="12" height="1" fill="#48494b"/><rect x="20" y="25" width="1" height="1" fill="#48494b"/><rect x="24" y="25" width="12" height="1" fill="#48494b"/><rect x="5" y="26" width="3" height="1" fill="#48494b"/><rect x="9" y="26" width="8" height="1" fill="#48494b"/><rect x="24" y="26" width="7" height="1" fill="#48494b"/><rect x="32" y="26" width="3" height="1" fill="#48494b"/><rect x="9" y="27" width="9" height="1" fill="#48494b"/><rect x="22" y="27" width="10" height="1" fill="#48494b"/><rect x="9" y="28" width="8" height="1" fill="#48494b"/><rect x="18" y="28" width="2" height="1" fill="#48494b"/><rect x="21" y="28" width="11" height="1" fill="#48494b"/><rect x="8" y="29" width="7" height="1" fill="#48494b"/><rect x="16" y="29" width="1" height="1" fill="#48494b"/><rect x="18" y="29" width="1" height="1" fill="#48494b"/><rect x="20" y="29" width="2" height="1" fill="#48494b"/><rect x="23" y="29" width="1" height="1" fill="#48494b"/><rect x="25" y="29" width="10" height="1" fill="#48494b"/><rect x="8" y="30" width="10" height="1" fill="#48494b"/><rect x="24" y="30" width="2" height="1" fill="#48494b"/><rect x="27" y="30" width="8" height="1" fill="#48494b"/><rect x="7" y="31" width="2" height="1" fill="#48494b"/><rect x="10" y="31" width="3" height="1" fill="#48494b"/><rect x="14" y="31" width="2" height="1" fill="#48494b"/><rect x="19" y="31" width="1" height="1" fill="#48494b"/><rect x="21" y="31" width="1" height="1" fill="#48494b"/><rect x="24" y="31" width="3" height="1" fill="#48494b"/><rect x="28" y="31" width="2" height="1" fill="#48494b"/><rect x="9" y="32" width="3" height="1" fill="#48494b"/><rect x="13" y="32" width="1" height="1" fill="#48494b"/><rect x="15" y="32" width="3" height="1" fill="#48494b"/><rect x="19" y="32" width="1" height="1" fill="#48494b"/><rect x="23" y="32" width="1" height="1" fill="#48494b"/><rect x="26" y="32" width="3" height="1" fill="#48494b"/><rect x="30" y="32" width="2" height="1" fill="#48494b"/><rect x="8" y="33" width="1" height="1" fill="#48494b"/><rect x="10" y="33" width="5" height="1" fill="#48494b"/><rect x="16" y="33" width="1" height="1" fill="#48494b"/><rect x="18" y="33" width="5" height="1" fill="#48494b"/><rect x="24" y="33" width="3" height="1" fill="#48494b"/><rect x="28" y="33" width="4" height="1" fill="#48494b"/><rect x="7" y="34" width="5" height="1" fill="#48494b"/><rect x="14" y="34" width="2" height="1" fill="#48494b"/><rect x="17" y="34" width="1" height="1" fill="#48494b"/><rect x="19" y="34" width="1" height="1" fill="#48494b"/><rect x="21" y="34" width="1" height="1" fill="#48494b"/><rect x="23" y="34" width="1" height="1" fill="#48494b"/><rect x="25" y="34" width="1" height="1" fill="#48494b"/><rect x="27" y="34" width="1" height="1" fill="#48494b"/><rect x="30" y="34" width="4" height="1" fill="#48494b"/><rect x="7" y="35" width="2" height="1" fill="#48494b"/><rect x="10" y="35" width="4" height="1" fill="#48494b"/><rect x="15" y="35" width="3" height="1" fill="#48494b"/><rect x="19" y="35" width="1" height="1" fill="#48494b"/><rect x="21" y="35" width="4" height="1" fill="#48494b"/><rect x="26" y="35" width="1" height="1" fill="#48494b"/><rect x="28" y="35" width="2" height="1" fill="#48494b"/><rect x="31" y="35" width="3" height="1" fill="#48494b"/><rect x="6" y="36" width="1" height="1" fill="#48494b"/><rect x="8" y="36" width="5" height="1" fill="#48494b"/><rect x="14" y="36" width="1" height="1" fill="#48494b"/><rect x="16" y="36" width="1" height="1" fill="#48494b"/><rect x="18" y="36" width="1" height="1" fill="#48494b"/><rect x="20" y="36" width="1" height="1" fill="#48494b"/><rect x="22" y="36" width="1" height="1" fill="#48494b"/><rect x="24" y="36" width="1" height="1" fill="#48494b"/><rect x="26" y="36" width="2" height="1" fill="#48494b"/><rect x="29" y="36" width="1" height="1" fill="#48494b"/><rect x="31" y="36" width="1" height="1" fill="#48494b"/><rect x="33" y="36" width="2" height="1" fill="#48494b"/><rect x="6" y="37" width="2" height="1" fill="#48494b"/><rect x="9" y="37" width="4" height="1" fill="#48494b"/><rect x="14" y="37" width="1" height="1" fill="#48494b"/><rect x="16" y="37" width="1" height="1" fill="#48494b"/><rect x="18" y="37" width="2" height="1" fill="#48494b"/><rect x="21" y="37" width="4" height="1" fill="#48494b"/><rect x="26" y="37" width="1" height="1" fill="#48494b"/><rect x="28" y="37" width="3" height="1" fill="#48494b"/><rect x="32" y="37" width="1" height="1" fill="#48494b"/><rect x="34" y="37" width="1" height="1" fill="#48494b"/><rect x="5" y="38" width="1" height="1" fill="#48494b"/><rect x="7" y="38" width="5" height="1" fill="#48494b"/><rect x="13" y="38" width="2" height="1" fill="#48494b"/><rect x="16" y="38" width="2" height="1" fill="#48494b"/><rect x="19" y="38" width="4" height="1" fill="#48494b"/><rect x="24" y="38" width="1" height="1" fill="#48494b"/><rect x="26" y="38" width="1" height="1" fill="#48494b"/><rect x="28" y="38" width="1" height="1" fill="#48494b"/><rect x="30" y="38" width="2" height="1" fill="#48494b"/><rect x="33" y="38" width="2" height="1" fill="#48494b"/><rect x="5" y="39" width="2" height="1" fill="#48494b"/><rect x="9" y="39" width="3" height="1" fill="#48494b"/><rect x="13" y="39" width="1" height="1" fill="#48494b"/><rect x="15" y="39" width="1" height="1" fill="#48494b"/><rect x="17" y="39" width="1" height="1" fill="#48494b"/><rect x="19" y="39" width="1" height="1" fill="#48494b"/><rect x="21" y="39" width="1" height="1" fill="#48494b"/><rect x="23" y="39" width="1" height="1" fill="#48494b"/><rect x="25" y="39" width="2" height="1" fill="#48494b"/><rect x="28" y="39" width="1" height="1" fill="#48494b"/><rect x="30" y="39" width="2" height="1" fill="#48494b"/><rect x="33" y="39" width="1" height="1" fill="#48494b"/><rect x="35" y="39" width="1" height="1" fill="#48494b"/></svg>